<svg width="616" height="144" viewBox="0 0 616 144" fill="none" xmlns="http://www.w3.org/2000/svg">
<g filter="url(#filter0_d_33_39)">
<path d="M602.168 33.0479C602.536 34.8445 602.93 36.9827 603.044 37.7994C604.233 46.3129 597.77 54.1356 587.857 56.1817C576.812 58.4607 564.826 50.4069 564.826 40.7055C564.826 37.266 560.418 35.8156 558.564 38.6446C557.783 39.8372 557.725 40.6467 558.227 43.3646C559.991 52.9026 568.097 60.6066 578.099 62.2512C580.109 62.582 582.32 62.958 583.013 63.0881C585.148 63.4866 591.335 68.4472 593.839 71.7679C600.544 80.6579 602.912 86.7529 602.933 95.1666C602.943 99.4525 602.631 101.468 601.419 104.953C598.264 114.027 591.12 121.78 581.753 126.299C575.281 129.421 571.054 130.463 563.227 130.867C557.677 131.153 555.663 130.998 551.021 129.926C532.372 125.616 519.58 111.757 519.439 95.7083C519.39 90.0766 520.496 87.5031 524.584 83.7345C531.268 77.5742 544.023 76.9981 551.274 82.5288C554.55 85.0275 557.016 89.0562 557.625 92.9037C558.229 96.7257 559.095 97.7871 561.61 97.7871C564.229 97.7871 565.085 96.2048 564.615 92.2344C563.503 82.8478 554.496 74.5338 543.339 72.5964C538.417 71.7417 536.032 70.4018 531.351 65.8641C523.408 58.1631 518.236 45.7356 519.341 37.0065C521.206 22.2679 532.573 10.2822 549.086 5.64121C555.812 3.75071 566.715 3.74833 573.387 5.63527C588.52 9.91519 599.596 20.4641 602.168 33.0479Z" fill="white"/>
<path d="M410.912 10.3143C418.948 15.0824 426.392 25.3582 427.594 33.3448C428.704 40.721 427.272 45.4214 422.686 49.4584C415.71 55.5985 403.908 55.6009 396.934 49.4625C393.824 46.7245 392.603 44.5554 391.716 40.1852C391.206 37.6764 390.7 36.7303 389.512 36.0633C388.136 35.2906 387.801 35.3072 386.415 36.2154C384.864 37.2322 384.862 37.2399 384.862 45.5004C384.862 53.3712 384.926 53.8125 386.183 54.6927C386.909 55.2012 388.445 55.6199 389.598 55.6234C392.439 55.6312 397.33 58.001 399.274 60.3108C401.298 62.7168 402.35 66.2027 401.852 68.8576C400.938 73.7261 395.907 77.9193 390.02 78.7181C384.868 79.4172 384.862 79.4285 384.862 89.0527C384.862 98.0609 385.331 99.5689 388.129 99.5689C389.963 99.5689 391.195 97.9285 391.699 94.8174C393.891 81.2833 412.886 76.049 423.372 86.0889C427.369 89.9156 428.567 94.0583 427.634 100.817C424.455 123.825 395.361 137.633 370.941 127.723C359.644 123.139 350.644 112.858 348.636 102.242C348.168 99.7655 348.023 88.5288 348.162 65.4175C348.359 32.5894 348.379 32.1106 349.702 28.5933C353.791 17.7207 363.593 9.25176 376.284 5.62637C380.098 4.53708 382.424 4.28466 388.426 4.3096C395.11 4.33752 396.413 4.52699 401.493 6.20724C404.596 7.23356 408.834 9.08189 410.912 10.3143Z" fill="white"/>
<path d="M157.858 13.5911C163.48 18.301 167.948 25.24 169.535 31.7252C170.214 34.5024 170.347 42.8758 170.261 77.3432L170.154 119.56L168.372 122.425C166.075 126.117 163.231 128.377 159.013 129.86C149.931 133.051 139.501 129.289 135.21 121.274C133.932 118.887 133.922 118.612 133.751 78.2079C133.598 41.7586 133.48 37.4341 132.62 36.4838C131.42 35.157 129.596 35.1255 128.18 36.4066C127.147 37.3403 127.093 39.3989 127.093 77.5902V117.792L125.243 121.494C121.986 128.013 115.42 131.456 107.285 130.912C102.079 130.564 98.029 128.766 94.6703 125.315C90.0471 120.565 90.2217 122.983 90.4047 66.2935C90.5662 16.1426 90.5668 16.1195 91.8503 13.7449C93.6291 10.4545 96.5157 7.85126 100.366 6.06529C103.014 4.83762 104.544 4.54956 108.444 4.5448C111.09 4.54124 114.105 4.83524 115.143 5.19695C116.566 5.69289 118.012 5.662 121.023 5.07163C126.688 3.95978 136.637 4.0851 141.348 5.32761C146.692 6.73643 154.105 10.4474 157.858 13.5911Z" fill="white"/>
<path fill-rule="evenodd" clip-rule="evenodd" d="M84.0412 32.0988C81.5158 20.4908 72.1844 10.9332 58.9628 6.41214C39.5036 -0.24174 16.7344 8.03538 8.24703 24.8486C4.70122 31.8737 4.69528 31.9645 4.87524 77.7993L5.03917 119.56L6.83345 122.462C14.1876 134.355 33.5749 133.69 39.8986 121.327C41.0764 119.026 41.1648 117.831 41.3127 102.268C41.4565 87.1734 41.5664 85.5953 42.5232 84.8957C43.9486 83.8533 46.0334 83.927 47.1666 85.0596C47.966 85.859 48.1062 88.2663 48.1448 101.838C48.1751 112.39 48.4228 118.316 48.8872 119.575C50.2984 123.402 53.119 126.55 57.0444 128.677C60.6502 130.632 61.1924 130.751 66.5117 130.751C71.831 130.751 72.3733 130.632 75.9791 128.677C79.9044 126.55 82.725 123.402 84.1362 119.575C85.2006 116.687 85.1144 37.0314 84.0412 32.0988ZM43.3642 69.2846C44.8401 69.8958 45.3622 69.8566 46.6113 69.0381L48.0997 68.0629V37.2328L46.5905 36.2439C45.3747 35.4474 44.7938 35.3862 43.6035 35.9285C42.7904 36.2991 41.9328 37.1211 41.6976 37.7554C41.4618 38.3898 41.3448 45.5794 41.4375 53.7329L41.6055 68.5564L43.3642 69.2846Z" fill="white"/>
<path fill-rule="evenodd" clip-rule="evenodd" d="M255.886 34.8297C254.652 22.553 244.72 11.2729 231.053 6.62478C224.344 4.34227 218.89 3.82851 203.693 4.0453C190.768 4.22942 189.545 4.3399 186.885 5.56697C182.529 7.57626 179.615 10.1801 177.922 13.5774L176.39 16.651L176.403 67.4642C176.416 115.586 176.475 118.406 177.513 120.692C179.165 124.33 181.948 127.155 185.745 129.048L189.16 130.751H224.796L230.346 128.813C240.088 125.412 247.965 119.238 252.124 111.745C252.889 110.365 253.503 109.263 253.995 108.109C255.977 103.462 255.998 97.9783 256.128 70.1595C256.209 52.8515 256.1 36.953 255.886 34.8297ZM214.142 98.6305C215.399 99.8867 217.557 99.8178 218.765 98.4826C219.652 97.502 219.748 94.4729 219.748 67.3145V37.2328L218.195 36.2154C216.801 35.3019 216.48 35.2876 215.076 36.0758L213.511 36.9536L213.358 67.3228C213.22 94.3458 213.307 97.7948 214.142 98.6305Z" fill="white"/>
<path fill-rule="evenodd" clip-rule="evenodd" d="M342.225 94.5204C341.92 91.5721 340.302 87.0344 338.043 82.7902L335.909 78.7811L338.063 74.772C341.983 67.4761 342.209 65.9176 341.981 47.7466C341.779 31.6337 341.772 31.5464 340.145 27.7024C335.568 16.8868 326.422 9.22385 313.763 5.59964C310.024 4.52936 307.71 4.28347 301.711 4.3203C295.073 4.36128 293.687 4.56262 288.627 6.2203C281.526 8.54616 276.455 11.5913 271.595 16.4479C266.973 21.0676 263.542 27.5118 262.553 33.4351C262.076 36.289 261.924 49.8177 262.044 78.7811C262.213 119.805 262.222 120.075 263.498 122.436C269.53 133.593 286.085 135.36 294.748 125.77C298.073 122.09 298.741 118.896 298.741 106.68C298.741 97.271 298.854 96.0878 299.828 95.2064C301.036 94.1124 302.736 93.9514 304.087 94.8037C304.81 95.2599 305.04 97.5727 305.308 107.118C305.601 117.539 305.781 119.145 306.894 121.279C313.558 134.06 334.148 134.213 340.417 121.527C341.959 118.407 342.031 117.84 342.216 107.29C342.323 101.247 342.327 95.5004 342.225 94.5204ZM299.674 61.8117C300.779 62.9158 303.553 63.0411 304.562 62.032C305.069 61.5248 305.275 57.8573 305.275 49.3045C305.275 36.3371 305.063 35.4236 302.058 35.4236C299.031 35.4236 298.741 36.6287 298.741 49.2368C298.741 59.0279 298.89 61.0265 299.674 61.8117Z" fill="white"/>
<path fill-rule="evenodd" clip-rule="evenodd" d="M512.633 30.643C511.065 24.8789 508.601 20.7724 503.899 16.091C494.876 7.10587 480.651 2.55986 467.732 4.53174C452.077 6.92115 440.233 15.9324 435.405 29.1267L433.862 33.3448V76.1084C433.862 118.81 433.864 118.875 435.146 121.248C437.023 124.72 439.956 127.463 443.662 129.211C446.423 130.512 447.757 130.751 452.274 130.751C456.699 130.751 458.113 130.508 460.482 129.341C464.384 127.42 466.551 125.49 468.471 122.225L470.092 119.466L470.389 102.368C470.63 88.4983 470.652 85.1872 472.078 84.3912C472.56 84.1222 473.203 84.1404 474.068 84.1354C477.324 84.117 477.517 85.16 477.517 102.78C477.517 117.732 477.598 118.962 478.739 121.319C480.237 124.415 483.877 127.788 487.541 129.478C491.424 131.269 499.82 131.279 503.68 129.497C507.255 127.847 510.545 124.894 512.149 121.898C513.449 119.466 513.45 119.453 513.57 76.9993C513.682 37.8956 513.607 34.2245 512.633 30.643ZM471.811 68.9948C473.697 70.2302 476.243 69.5804 476.966 67.6792C477.269 66.8827 477.517 59.9556 477.517 52.2849V38.3393L476.059 36.8817C474.36 35.1825 473.521 35.0797 471.71 36.3484C470.403 37.2631 470.389 37.4323 470.389 52.668V68.0629L471.811 68.9948Z" fill="white"/>
</g>
<defs>
<filter id="filter0_d_33_39" x="0.815674" y="0" width="614.369" height="144" filterUnits="userSpaceOnUse" color-interpolation-filters="sRGB">
<feFlood flood-opacity="0" result="BackgroundImageFix"/>
<feColorMatrix in="SourceAlpha" type="matrix" values="0 0 0 0 0 0 0 0 0 0 0 0 0 0 0 0 0 0 127 0" result="hardAlpha"/>
<feOffset dx="4" dy="4"/>
<feGaussianBlur stdDeviation="4"/>
<feComposite in2="hardAlpha" operator="out"/>
<feColorMatrix type="matrix" values="0 0 0 0 0.643137 0 0 0 0 0.286275 0 0 0 0 0.552941 0 0 0 0.5 0"/>
<feBlend mode="normal" in2="BackgroundImageFix" result="effect1_dropShadow_33_39"/>
<feBlend mode="normal" in="SourceGraphic" in2="effect1_dropShadow_33_39" result="shape"/>
</filter>
</defs>
</svg>
