<svg width="86" height="18" viewBox="0 0 86 18" fill="none" xmlns="http://www.w3.org/2000/svg">
<path d="M0.688 8.584C0.688 7.688 0.869333 6.904 1.232 6.232C1.59467 5.54933 2.09067 5.02133 2.72 4.648C3.36 4.27467 4.07467 4.088 4.864 4.088C5.54667 4.088 6.18133 4.248 6.768 4.568C7.35467 4.87733 7.80267 5.288 8.112 5.8V1.16H9.584V13H8.112V11.352C7.824 11.8747 7.39733 12.3067 6.832 12.648C6.26667 12.9787 5.60533 13.144 4.848 13.144C4.06933 13.144 3.36 12.952 2.72 12.568C2.09067 12.184 1.59467 11.6453 1.232 10.952C0.869333 10.2587 0.688 9.46933 0.688 8.584ZM8.112 8.6C8.112 7.93867 7.97867 7.36267 7.712 6.872C7.44533 6.38133 7.08267 6.008 6.624 5.752C6.176 5.48533 5.68 5.352 5.136 5.352C4.592 5.352 4.096 5.48 3.648 5.736C3.2 5.992 2.84267 6.36533 2.576 6.856C2.30933 7.34667 2.176 7.92267 2.176 8.584C2.176 9.256 2.30933 9.84267 2.576 10.344C2.84267 10.8347 3.2 11.2133 3.648 11.48C4.096 11.736 4.592 11.864 5.136 11.864C5.68 11.864 6.176 11.736 6.624 11.48C7.08267 11.2133 7.44533 10.8347 7.712 10.344C7.97867 9.84267 8.112 9.26133 8.112 8.6ZM13.5005 5.848C13.7885 5.34667 14.2152 4.93067 14.7805 4.6C15.3565 4.25867 16.0232 4.088 16.7805 4.088C17.5592 4.088 18.2632 4.27467 18.8925 4.648C19.5325 5.02133 20.0338 5.54933 20.3965 6.232C20.7592 6.904 20.9405 7.688 20.9405 8.584C20.9405 9.46933 20.7592 10.2587 20.3965 10.952C20.0338 11.6453 19.5325 12.184 18.8925 12.568C18.2632 12.952 17.5592 13.144 16.7805 13.144C16.0338 13.144 15.3725 12.9787 14.7965 12.648C14.2312 12.3067 13.7992 11.8853 13.5005 11.384V17.16H12.0445V4.232H13.5005V5.848ZM19.4525 8.584C19.4525 7.92267 19.3192 7.34667 19.0525 6.856C18.7858 6.36533 18.4232 5.992 17.9645 5.736C17.5165 5.48 17.0205 5.352 16.4765 5.352C15.9432 5.352 15.4472 5.48533 14.9885 5.752C14.5405 6.008 14.1778 6.38667 13.9005 6.888C13.6338 7.37867 13.5005 7.94933 13.5005 8.6C13.5005 9.26133 13.6338 9.84267 13.9005 10.344C14.1778 10.8347 14.5405 11.2133 14.9885 11.48C15.4472 11.736 15.9432 11.864 16.4765 11.864C17.0205 11.864 17.5165 11.736 17.9645 11.48C18.4232 11.2133 18.7858 10.8347 19.0525 10.344C19.3192 9.84267 19.4525 9.256 19.4525 8.584ZM22.313 8.584C22.313 7.688 22.4943 6.904 22.857 6.232C23.2197 5.54933 23.7157 5.02133 24.345 4.648C24.985 4.27467 25.6943 4.088 26.473 4.088C27.241 4.088 27.9077 4.25333 28.473 4.584C29.0383 4.91467 29.4597 5.33067 29.737 5.832V4.232H31.209V13H29.737V11.368C29.449 11.88 29.017 12.3067 28.441 12.648C27.8757 12.9787 27.2143 13.144 26.457 13.144C25.6783 13.144 24.9743 12.952 24.345 12.568C23.7157 12.184 23.2197 11.6453 22.857 10.952C22.4943 10.2587 22.313 9.46933 22.313 8.584ZM29.737 8.6C29.737 7.93867 29.6037 7.36267 29.337 6.872C29.0703 6.38133 28.7077 6.008 28.249 5.752C27.801 5.48533 27.305 5.352 26.761 5.352C26.217 5.352 25.721 5.48 25.273 5.736C24.825 5.992 24.4677 6.36533 24.201 6.856C23.9343 7.34667 23.801 7.92267 23.801 8.584C23.801 9.256 23.9343 9.84267 24.201 10.344C24.4677 10.8347 24.825 11.2133 25.273 11.48C25.721 11.736 26.217 11.864 26.761 11.864C27.305 11.864 27.801 11.736 28.249 11.48C28.7077 11.2133 29.0703 10.8347 29.337 10.344C29.6037 9.84267 29.737 9.26133 29.737 8.6ZM35.1255 1.16V13H33.6695V1.16H35.1255ZM48.151 4.072C48.8337 4.072 49.4417 4.216 49.975 4.504C50.5083 4.78133 50.9297 5.20267 51.239 5.768C51.5483 6.33333 51.703 7.02133 51.703 7.832V13H50.263V8.04C50.263 7.16533 50.0443 6.49867 49.607 6.04C49.1803 5.57067 48.599 5.336 47.863 5.336C47.1057 5.336 46.503 5.58133 46.055 6.072C45.607 6.552 45.383 7.25067 45.383 8.168V13H43.943V8.04C43.943 7.16533 43.7243 6.49867 43.287 6.04C42.8603 5.57067 42.279 5.336 41.543 5.336C40.7857 5.336 40.183 5.58133 39.735 6.072C39.287 6.552 39.063 7.25067 39.063 8.168V13H37.607V4.232H39.063V5.496C39.351 5.03733 39.735 4.68533 40.215 4.44C40.7057 4.19467 41.2443 4.072 41.831 4.072C42.567 4.072 43.2177 4.23733 43.783 4.568C44.3483 4.89867 44.7697 5.384 45.047 6.024C45.2923 5.40533 45.6977 4.92533 46.263 4.584C46.8283 4.24267 47.4577 4.072 48.151 4.072ZM62.0914 8.28C62.0914 8.55733 62.0754 8.85067 62.0434 9.16H55.0354C55.0887 10.024 55.382 10.7013 55.9154 11.192C56.4594 11.672 57.1154 11.912 57.8834 11.912C58.5127 11.912 59.0354 11.768 59.4514 11.48C59.878 11.1813 60.1767 10.7867 60.3474 10.296H61.9154C61.6807 11.1387 61.2114 11.8267 60.5074 12.36C59.8034 12.8827 58.9287 13.144 57.8834 13.144C57.0514 13.144 56.3047 12.9573 55.6434 12.584C54.9927 12.2107 54.4807 11.6827 54.1074 11C53.734 10.3067 53.5474 9.50667 53.5474 8.6C53.5474 7.69333 53.7287 6.89867 54.0914 6.216C54.454 5.53333 54.9607 5.01067 55.6114 4.648C56.2727 4.27467 57.03 4.088 57.8834 4.088C58.7154 4.088 59.4514 4.26933 60.0914 4.632C60.7314 4.99467 61.222 5.496 61.5634 6.136C61.9154 6.76533 62.0914 7.48 62.0914 8.28ZM60.5874 7.976C60.5874 7.42133 60.4647 6.94667 60.2194 6.552C59.974 6.14667 59.638 5.84267 59.2114 5.64C58.7954 5.42667 58.3314 5.32 57.8194 5.32C57.0834 5.32 56.454 5.55467 55.9314 6.024C55.4194 6.49333 55.126 7.144 55.0514 7.976H60.5874ZM65.4693 5.656C65.7253 5.15467 66.0879 4.76533 66.5573 4.488C67.0373 4.21067 67.6186 4.072 68.3013 4.072V5.576H67.9173C66.2853 5.576 65.4693 6.46133 65.4693 8.232V13H64.0133V4.232H65.4693V5.656ZM70.446 13.096C70.1687 13.096 69.934 13 69.742 12.808C69.55 12.616 69.454 12.3813 69.454 12.104C69.454 11.8267 69.55 11.592 69.742 11.4C69.934 11.208 70.1687 11.112 70.446 11.112C70.7127 11.112 70.9367 11.208 71.118 11.4C71.31 11.592 71.406 11.8267 71.406 12.104C71.406 12.3813 71.31 12.616 71.118 12.808C70.9367 13 70.7127 13.096 70.446 13.096ZM74.0934 2.808C73.816 2.808 73.5814 2.712 73.3894 2.52C73.1974 2.328 73.1014 2.09333 73.1014 1.816C73.1014 1.53867 73.1974 1.304 73.3894 1.112C73.5814 0.919999 73.816 0.823999 74.0934 0.823999C74.36 0.823999 74.584 0.919999 74.7654 1.112C74.9574 1.304 75.0534 1.53867 75.0534 1.816C75.0534 2.09333 74.9574 2.328 74.7654 2.52C74.584 2.712 74.36 2.808 74.0934 2.808ZM74.7974 4.232V13H73.3414V4.232H74.7974ZM81.5509 4.072C82.6175 4.072 83.4815 4.39733 84.1429 5.048C84.8042 5.688 85.1349 6.616 85.1349 7.832V13H83.6949V8.04C83.6949 7.16533 83.4762 6.49867 83.0389 6.04C82.6015 5.57067 82.0042 5.336 81.2469 5.336C80.4789 5.336 79.8655 5.576 79.4069 6.056C78.9589 6.536 78.7349 7.23467 78.7349 8.152V13H77.2789V4.232H78.7349V5.48C79.0229 5.032 79.4122 4.68533 79.9029 4.44C80.4042 4.19467 80.9535 4.072 81.5509 4.072Z" fill="white"/>
</svg>
