<svg width="143" height="72" viewBox="0 0 143 72" fill="none" xmlns="http://www.w3.org/2000/svg">
<g filter="url(#filter0_d_34_237)">
<path d="M127.78 46.895C132.858 49.0368 135.063 50.591 136.022 52.7037C136.984 54.8222 136.999 58.1325 136.055 60.1884C134.38 63.8408 130.589 65.9897 125.894 65.9473C119.515 65.8901 115.303 62.3972 114.713 56.6768L114.492 54.5447H118.782L119.029 56.4032C119.553 60.3495 122.554 62.6362 126.689 62.2392C129.769 61.943 132.505 59.3305 132.505 56.6854C132.505 53.9223 130.683 52.423 124.137 49.8005C120.271 48.2514 118.207 46.4295 117.687 44.1066C117.246 42.1422 117.708 39.9735 118.885 38.4769C121.643 34.972 129.422 34.7754 132.635 38.1301L133.676 39.2164L131.352 41.4428L129.346 40.351C125.76 38.3991 122.326 39.2441 122.075 42.1406C121.915 43.9894 122.964 44.8636 127.78 46.895Z" fill="white"/>
<path d="M131.338 12.716V2H135.272L135.035 25.6109L133.862 27.5083C132.155 30.2663 129.501 31.5807 125.637 31.5807C121.217 31.5807 118.673 30.1795 116.804 26.7155C116.006 25.2364 115.958 24.5806 115.845 13.5793L115.726 2H119.607L119.731 12.9955C119.851 23.6243 119.885 24.038 120.735 25.4046C122.984 29.0208 129.178 28.6016 130.798 24.7238C131.214 23.7286 131.338 20.9725 131.338 12.716Z" fill="white"/>
<path d="M97.8648 47.0234L103.898 55.907L104.106 36.2514H108.374V65.4428H105.301L99.9631 57.5611C97.0268 53.226 93.9964 48.8076 93.2285 47.7423L91.8319 45.8051L91.4427 65.2482L87.3559 65.4837V36.2514H88.8844C90.695 36.2514 89.91 35.3094 97.8648 47.0234Z" fill="white"/>
<path d="M76.067 47.0522L76.0685 36.2514H80.7836L80.6641 47.2468C80.545 58.1901 80.5399 58.2528 79.5213 60.4246C77.8438 64.0019 74.5704 65.8321 69.85 65.8321C65.2864 65.8321 61.7931 63.9836 59.9902 60.6146C59.1776 59.0954 59.132 58.4871 59.0184 47.6158L58.8993 36.2113L63.4189 36.446L63.4804 47.0148C63.5501 59.0561 63.7061 59.8186 66.3762 61.1809C69.5736 62.8121 73.6106 61.8799 75.292 59.1215C76.0148 57.9363 76.0658 57.1431 76.067 47.0522Z" fill="white"/>
<path d="M48.0431 47.0522L48.0447 36.2514H52.7788L52.5207 58.2423L51.4406 60.4414C49.7008 63.9844 46.422 65.8321 41.8744 65.8321C37.2617 65.8321 33.7763 63.9965 31.9664 60.6146C31.1537 59.0954 31.1082 58.4867 30.9945 47.636L30.8758 36.2514H35.2005V46.1056C35.2005 53.7997 35.3305 56.3982 35.7932 57.957C36.6067 60.6955 38.039 61.688 41.4194 61.8554C44.3569 62.001 45.9733 61.2455 47.2682 59.1215C47.991 57.9363 48.042 57.1431 48.0431 47.0522Z" fill="white"/>
<path d="M38.6384 27.2993C42.2422 27.2993 45.2886 27.3974 45.4085 27.5176C45.5288 27.6375 45.6016 28.4693 45.5708 29.3664L45.5148 30.9969L28.1945 31.2063V2H32.0867V27.2993H38.6384Z" fill="white"/>
<path d="M15.4285 10.6321C14.9953 11.1809 15.6161 12.6495 19.7866 20.9398C22.4613 26.257 24.6592 30.7478 24.6705 30.919C24.6822 31.0903 23.7107 31.1779 22.5119 31.1136L20.3322 30.9969L16.1871 22.9264C13.9074 18.4874 11.9543 14.8629 11.8473 14.8723C11.7402 14.8812 10.9081 15.7893 9.99846 16.8904L8.34428 18.8917V31.1915H4.45208V2H8.34428V7.25447C8.34428 10.1444 8.47545 12.4984 8.63619 12.4852C8.79694 12.4724 10.9081 10.1078 13.3282 7.23073L17.7284 2H20.0423C21.315 2 22.3562 2.08018 22.3562 2.17827C22.3562 2.27635 20.9114 4.07455 19.1451 6.17439C17.3788 8.27423 15.7068 10.2803 15.4285 10.6321Z" fill="white"/>
<path d="M15.6176 46.942C21.2808 49.1668 23.4483 50.8584 24.3194 53.7328C25.2325 56.7457 24.5024 59.993 22.3663 62.4198C19.4756 65.704 14.0709 66.8919 9.27217 65.298C5.27683 63.9708 2.50598 60.1989 2.50598 56.0868V54.5447H6.67881L6.91117 56.5044C7.20075 58.9514 8.38242 60.65 10.4465 61.5876C14.4737 63.4165 19.042 61.683 20.0489 57.9437C20.9099 54.7467 19.2475 52.6204 14.4939 50.8373C6.94464 48.0054 4.57974 45.4856 5.39477 41.1419C6.32267 36.1957 14.4546 33.8631 19.2891 37.1563C21.4337 38.6174 21.5793 39.2592 20.0563 40.5452L18.7298 41.6658L17.6116 40.725C14.5368 38.1375 9.90116 39.1222 9.90116 42.3633C9.90116 44.2148 11.0821 45.1606 15.6176 46.942Z" fill="white"/>
<path d="M92.805 2H113.087L112.85 5.69759L104.871 5.91944V31.1915H100.979V5.8922H92.805V2Z" fill="white"/>
<path fill-rule="evenodd" clip-rule="evenodd" d="M67.64 22.434C65.8558 17.7245 63.3901 11.2004 62.1606 7.93561C60.0533 2.34057 59.8661 2 58.8954 2C58.2512 2 57.7904 2.25494 57.6643 2.68114C57.5534 3.05557 55.0822 9.49248 52.1728 16.985C49.2634 24.4774 46.8817 30.7482 46.8802 30.9198C46.8782 31.0919 47.7894 31.1794 48.9045 31.1144L50.9315 30.9969L52.9995 25.5478H64.5807L65.481 28.0777C65.9764 29.4692 66.5218 30.749 66.6934 30.9218C66.8651 31.0946 67.8782 31.1822 68.9447 31.1164L70.8841 30.9969L67.64 22.434ZM54.7264 21.1391C54.6548 21.3162 56.4503 21.461 58.7159 21.461C61.7647 21.461 62.8288 21.3345 62.8105 20.9745C62.7708 20.1777 59.2157 10.9521 58.9483 10.9521C58.8132 10.9521 57.8371 13.1718 56.7792 15.8846C55.7213 18.5975 54.7977 20.962 54.7264 21.1391Z" fill="white"/>
<path fill-rule="evenodd" clip-rule="evenodd" d="M95.7343 30.3582C95.57 30.1939 89.2214 13.6108 86.1073 5.21106C85.0303 2.30632 84.8198 2.0004 83.8985 2.00585C82.9562 2.0113 82.7429 2.3686 81.0529 6.77379C80.0479 9.39285 77.5519 15.8667 75.5065 21.1601C73.4608 26.4539 71.7871 30.8856 71.7871 31.0086C71.7871 31.1316 72.696 31.1794 73.8068 31.1144L75.8261 30.9969L78.1053 25.3532H89.5048L91.5198 30.9969L93.7193 31.1136C95.6533 31.2164 96.336 30.9603 95.7343 30.3582ZM79.5828 21.461H83.6642C86.6779 21.461 87.7409 21.3337 87.7288 20.9745C87.7023 20.1812 84.1861 10.9521 83.9109 10.9536C83.6871 10.9548 83.0912 12.3828 80.2974 19.6122L79.5828 21.461Z" fill="white"/>
</g>
<defs>
<filter id="filter0_d_34_237" x="0.505981" y="0" width="142.247" height="72" filterUnits="userSpaceOnUse" color-interpolation-filters="sRGB">
<feFlood flood-opacity="0" result="BackgroundImageFix"/>
<feColorMatrix in="SourceAlpha" type="matrix" values="0 0 0 0 0 0 0 0 0 0 0 0 0 0 0 0 0 0 127 0" result="hardAlpha"/>
<feOffset dx="2" dy="2"/>
<feGaussianBlur stdDeviation="2"/>
<feComposite in2="hardAlpha" operator="out"/>
<feColorMatrix type="matrix" values="0 0 0 0 0.611765 0 0 0 0 0.313726 0 0 0 0 0.509804 0 0 0 0.5 0"/>
<feBlend mode="normal" in2="BackgroundImageFix" result="effect1_dropShadow_34_237"/>
<feBlend mode="normal" in="SourceGraphic" in2="effect1_dropShadow_34_237" result="shape"/>
</filter>
</defs>
</svg>
