<svg width="138" height="72" viewBox="0 0 138 72" fill="none" xmlns="http://www.w3.org/2000/svg">
<g filter="url(#filter0_d_34_238)">
<path d="M121.027 36.6301C126.531 36.6301 131.158 36.7541 131.31 36.9061C131.462 37.0576 131.534 37.884 131.471 38.7422L131.356 40.3024L128.457 40.3638C126.863 40.3978 124.992 40.4415 124.302 40.4605L123.045 40.4956V65.6219H119.19L118.987 40.3623L111.255 40.3024L111.02 36.6301H121.027Z" fill="white"/>
<path d="M121.344 11.6345L126.24 21.1364C128.933 26.3627 131.142 30.8561 131.15 31.1216C131.159 31.4513 130.488 31.6048 129.039 31.6048H126.914L122.852 23.4871C120.618 19.0224 118.66 15.3694 118.501 15.3694C118.343 15.3698 117.474 16.2283 116.571 17.2774L114.928 19.1851V31.6048H111.062V2.613H114.906L115.121 13.2391L124.012 2.63735L126.475 2.62538C129.334 2.61108 129.553 2.00302 124.612 7.80022L121.344 11.6345Z" fill="white"/>
<path d="M102.581 22.4241L103.067 20.7812H106.915L106.677 22.5219C106.196 26.0291 103.645 29.2545 100.045 30.9082C97.2384 32.1974 92.3025 32.1634 89.6789 30.8371C84.2408 28.0875 81.3092 20.9536 82.5964 13.6032C83.2501 9.87102 84.274 7.73296 86.4457 5.56399C90.4679 1.54727 96.625 0.839876 101.104 3.88015C102.111 4.56397 103.011 5.32046 103.103 5.5609C103.195 5.80172 102.686 6.56556 101.971 7.25866L100.671 8.51844L99.4708 7.50876C97.2817 5.66681 93.9917 5.34673 91.2897 6.71321C89.6681 7.53387 87.5161 10.3302 86.8934 12.4269C86.1384 14.9689 86.1686 19.0568 86.9606 21.5083C88.2158 25.3951 91.5885 28.1335 95.1012 28.1173C98.7356 28.1007 101.533 25.9711 102.581 22.4241Z" fill="white"/>
<path d="M62.7424 61.6643C65.4 61.7204 67.7916 61.8452 68.0576 61.9422C68.3471 62.0478 68.5408 62.8209 68.5408 63.8704V65.6219H53.8516V36.6301H57.7064L57.9104 61.563L62.7424 61.6643Z" fill="white"/>
<path d="M22.6769 13.7725C26.1331 15.4143 28.2333 17.2516 28.9647 19.274C30.2813 22.915 29.0269 27.6913 26.1679 29.9248C24.1918 31.4684 22.547 31.9918 19.6803 31.9891C16.3915 31.9864 14.7962 31.451 12.7768 29.674C10.8216 27.9526 9.90967 26.0461 9.54089 22.908L9.29119 20.7812H13.1633L13.4138 22.6676C13.88 26.183 16.3609 28.5112 19.6413 28.5112C21.9668 28.5112 23.7488 27.4404 24.7871 25.4199C26.694 21.7097 25.1056 19.095 19.4909 16.7023C13.9152 14.3257 12.1077 12.4594 12.105 9.07547C12.1019 5.39931 14.0153 3.01309 17.5786 2.24887C20.3398 1.65666 23.3024 2.28753 25.0763 3.84497C26.6345 5.213 26.6909 5.54581 25.5656 6.74375C24.52 7.85665 24.4396 7.85472 22.697 6.67185C19.8581 4.74525 15.969 5.88174 15.969 8.63789C15.969 9.66034 18.2408 12.2769 19.1287 12.2769C19.3479 12.2769 20.9447 12.9499 22.6769 13.7725Z" fill="white"/>
<path d="M18.993 46.9705L19.1175 36.6301H22.9711L22.8524 47.5503C22.7388 58.002 22.6955 58.5537 21.8431 60.4033C20.0178 64.3656 17.4719 65.9883 13.0698 65.9961C7.32747 66.0061 3.82952 62.8131 3.02587 56.8277L2.75336 54.7983H6.62356L6.89647 56.4411C7.23626 58.4841 7.87137 59.7431 9.17987 60.9658C9.97772 61.7111 10.7106 61.9469 12.599 62.0659C15.4235 62.2441 16.5944 61.5626 18.0092 58.917C18.8249 57.3921 18.8743 56.789 18.993 46.9705Z" fill="white"/>
<path d="M95.5998 61.7563H107.97V65.6219H91.3477V36.6301H107.583V40.4956H95.5998V48.5929L107.003 48.8066L107.239 52.4789H95.5998V61.7563Z" fill="white"/>
<path d="M72.4064 36.6301H85.5493V40.4956H80.9106V61.7563H85.5493V65.6219H72.4064V61.7563H77.0451V40.4956H72.4064V36.6301Z" fill="white"/>
<path d="M63.5155 27.7392H79.0204L78.7846 31.4115L59.65 31.6183V2.613H78.2047V6.47858H63.5155V14.5963H77.8182V18.4619H63.5155V27.7392Z" fill="white"/>
<path fill-rule="evenodd" clip-rule="evenodd" d="M55.5896 8.21809C54.8903 6.24162 52.0881 3.5767 50.1418 3.03629C49.2941 2.80088 45.2863 2.61648 40.994 2.61532L33.3548 2.613L33.5573 31.4115H37.4229L37.6374 20.8871L43.1351 20.6969C47.7177 20.5388 48.9705 20.3614 50.6594 19.6316C55.2308 17.6559 57.2641 12.9492 55.5896 8.21809ZM42.7381 16.9148C48.3447 16.9145 49.8198 16.5063 51.2431 14.5627C52.9127 12.2831 52.2806 8.86171 49.8619 7.08586C48.9021 6.38155 48.1015 6.26945 43.1938 6.15233L37.6162 6.01935V16.9156L42.7381 16.9148Z" fill="white"/>
<path fill-rule="evenodd" clip-rule="evenodd" d="M48.6721 46.4757C47.4088 39.8288 43.6608 36.2435 37.9753 36.2435C36.5559 36.2435 34.6327 36.5118 33.7027 36.8392C31.4239 37.6421 29.0184 40.0925 27.6921 42.963C26.6496 45.219 26.5997 45.585 26.6097 50.9327C26.619 55.9019 26.7238 56.7972 27.5317 58.8258C29.4181 63.5607 32.8986 66.0146 37.7086 65.9999C41.6727 65.988 43.9461 64.8414 46.2905 61.6716C48.5898 58.5626 49.6652 51.7008 48.6721 46.4757ZM39.1149 62.1096C41.0732 61.696 42.3214 60.5746 43.607 58.0751C44.6608 56.0263 44.7756 55.4326 44.8668 51.5411C44.9708 47.1243 44.6964 45.7722 43.1637 43.1478C42.747 42.4346 41.8069 41.4439 41.0743 40.9464C39.295 39.7376 35.7174 39.8737 33.8991 41.2193C31.3625 43.0964 30.0501 47.1943 30.3655 52.2512C30.7908 59.0655 34.3807 63.1104 39.1149 62.1096Z" fill="white"/>
</g>
<defs>
<filter id="filter0_d_34_238" x="0.753357" y="0" width="136.741" height="72" filterUnits="userSpaceOnUse" color-interpolation-filters="sRGB">
<feFlood flood-opacity="0" result="BackgroundImageFix"/>
<feColorMatrix in="SourceAlpha" type="matrix" values="0 0 0 0 0 0 0 0 0 0 0 0 0 0 0 0 0 0 127 0" result="hardAlpha"/>
<feOffset dx="2" dy="2"/>
<feGaussianBlur stdDeviation="2"/>
<feComposite in2="hardAlpha" operator="out"/>
<feColorMatrix type="matrix" values="0 0 0 0 0.611765 0 0 0 0 0.313726 0 0 0 0 0.509804 0 0 0 0.5 0"/>
<feBlend mode="normal" in2="BackgroundImageFix" result="effect1_dropShadow_34_238"/>
<feBlend mode="normal" in="SourceGraphic" in2="effect1_dropShadow_34_238" result="shape"/>
</filter>
</defs>
</svg>
