<svg width="53" height="16" viewBox="0 0 53 16" fill="none" xmlns="http://www.w3.org/2000/svg">
<path fill-rule="evenodd" clip-rule="evenodd" d="M1.28459 0.279856C0.448509 0.618863 0.148613 0.96751 0.148613 1.60092C0.148613 2.36013 0.85622 2.89944 2.42056 3.33255C3.4925 3.62925 3.7767 3.77988 3.83061 4.08C3.9186 4.57046 3.52823 4.92809 2.90469 4.92809C2.55378 4.92809 2.2797 4.75802 1.97691 4.35202C1.28872 3.42927 0.33264 3.23175 0.0434834 3.95273C-0.40946 5.08134 2.782 5.86244 4.69374 5.09098C5.69071 4.68874 6.01044 4.24959 5.83777 3.52093C5.68761 2.88784 5.29312 2.64523 3.60837 2.1497C2.34331 1.7777 1.90008 1.25799 2.42283 0.759857C2.86834 0.335077 3.42269 0.485057 3.97767 1.18039C4.41305 1.72623 4.60617 1.83504 5.06448 1.79305C5.53002 1.75057 5.62193 1.66251 5.62193 1.25865C5.62193 0.21908 2.93236 -0.387865 1.28459 0.279856ZM7.31371 0.144744C6.6693 0.221367 6.37023 0.602362 6.73044 0.887291C6.86861 0.99659 6.96445 1.65092 6.96445 2.48593C6.96445 3.68675 7.03529 3.98263 7.43536 4.45234C7.69436 4.75622 8.13594 5.09686 8.41643 5.20926C9.12032 5.49092 10.292 5.46903 10.8427 5.16384C11.2582 4.93365 11.3454 4.93365 11.7609 5.16384C12.2688 5.44534 13.3048 5.49599 13.772 5.26236C14.0327 5.13199 14.0265 5.07023 13.7268 4.80817C13.4451 4.56196 13.3689 4.09144 13.3218 2.30671L13.2639 0.108474L12.1416 0.146704C10.7846 0.193103 10.5171 0.357134 10.968 0.866216C11.3712 1.32155 11.4325 3.54217 11.0599 4.18914C10.7148 4.78808 9.8903 4.91551 9.40803 4.4445C9.08686 4.13081 9.02985 3.76942 9.02985 2.05086V0.0267854L8.46187 0.0512922C8.14937 0.0646891 7.63281 0.10684 7.31371 0.144744ZM15.2777 0.395854C14.3481 0.765249 14.2047 1.00215 14.7097 1.3338C15.172 1.63735 15.1618 6.49193 14.6977 7.01588C14.5207 7.21586 14.4334 7.45275 14.5034 7.54245C14.5734 7.63214 15.2758 7.7055 16.0644 7.7055C17.3458 7.7055 17.498 7.67184 17.498 7.38838C17.498 7.2139 17.4051 7.02585 17.2915 6.9703C17.1779 6.91475 17.0849 6.47119 17.0849 5.98449C17.0849 5.10209 17.0864 5.09996 17.6147 5.25893C18.4838 5.52033 19.4583 5.44142 20.2041 5.04932C21.0486 4.60526 21.8354 3.44381 21.8354 2.64082C21.8354 1.79191 21.0435 0.679803 20.1863 0.324785C19.3038 -0.0405256 17.9547 -0.0607845 17.3359 0.28198C16.9183 0.513322 16.8637 0.513322 16.7514 0.28198C16.5915 -0.0478778 16.3465 -0.0289263 15.2777 0.395854ZM24.1571 0.352722C21.8451 1.46777 22.0454 4.37882 24.4898 5.18672C25.8935 5.65054 27.3413 5.3844 28.2199 4.50086C29.017 3.69933 28.6586 3.33566 27.6749 3.94783C27.3859 4.12754 26.896 4.27458 26.5858 4.27458C26.0457 4.27458 24.9335 3.73413 24.9335 3.47159C24.9335 3.40248 25.6731 3.07131 26.5769 2.73574C27.608 2.35311 28.2691 2.00414 28.3513 1.79942C28.5444 1.31779 28.0562 0.535377 27.3932 0.264172C26.5519 -0.0798998 24.964 -0.0366049 24.1571 0.352722ZM30.1486 0.373471C29.2293 0.70774 29.0608 0.992506 29.5806 1.3338C30.0142 1.6184 30.0193 4.24076 29.5872 4.69266C29.4203 4.86699 29.2809 5.065 29.2774 5.13231C29.2737 5.19962 29.9679 5.25485 30.8199 5.25485C32.4598 5.25485 32.6432 5.14702 32.0525 4.52929C31.7328 4.19486 31.658 2.28253 31.9339 1.49799C32.1285 0.9448 32.6488 0.903466 33.0666 1.40814C33.5127 1.94663 34.3771 1.97358 34.6212 1.45633C34.8092 1.05786 34.5622 0.355826 34.1631 0.1552C33.6848 -0.0854546 32.5788 0.0241714 32.1624 0.353539C31.9352 0.533254 31.7028 0.680293 31.646 0.680293C31.5892 0.680293 31.5428 0.533254 31.5428 0.353539C31.5428 -0.0442835 31.2873 -0.0405256 30.1486 0.373471ZM18.9 0.888435C19.861 1.69764 20.0139 4.08115 19.1404 4.64055C18.5357 5.02791 18.1934 5.00292 17.592 4.527C17.125 4.15777 17.0849 4.0037 17.0849 2.57824C17.0849 1.38886 17.1601 0.97094 17.4094 0.773581C17.8642 0.413988 18.3839 0.453853 18.9 0.888435ZM26.2642 0.880103C26.8632 1.55648 26.6816 1.94336 25.5531 2.39575L24.5204 2.80975V2.02635C24.5204 1.15245 24.9552 0.516916 25.5531 0.516916C25.7675 0.516916 26.0874 0.680293 26.2642 0.880103Z" fill="white"/>
<path d="M50.054 9.14207C49.6378 8.58479 49.5851 8.64818 50.9128 8.10724C51.4808 7.8759 52.0052 7.68311 52.0783 7.67903C52.3916 7.66106 52.4618 8.37975 52.4618 11.6079C52.4618 14.0035 52.5368 15.1226 52.7122 15.3448C52.8499 15.5193 52.9174 15.6976 52.8623 15.7412C52.7091 15.8626 49.9976 15.9059 49.8503 15.7894C49.7791 15.733 49.8644 15.5138 50.0397 15.302C50.5393 14.6988 50.5507 9.80718 50.054 9.14207Z" fill="white"/>
<path d="M20.1029 9.95863C18.9005 9.95863 18.312 8.7748 19.2549 8.25248C19.5073 8.11263 19.9255 7.9981 20.1843 7.9981C20.7651 7.9981 21.4808 8.53921 21.4808 8.97837C21.4808 9.44121 20.7535 9.95863 20.1029 9.95863Z" fill="white"/>
<path d="M23.3396 10.0529C23.3396 9.39432 24.1338 8.56012 25.0849 8.21915C25.4771 8.07865 26.2386 8.01166 27.1024 8.04173C28.662 8.0958 29.4985 8.45425 29.8409 9.2151C30.007 9.58384 29.9723 9.70441 29.6466 9.89279C29.4287 10.0189 29.1217 10.122 28.9643 10.122C28.6915 10.122 28.5434 10.0067 27.412 8.91285C27.0254 8.53905 26.8122 8.46046 26.4053 8.54133C25.7995 8.66158 25.405 9.25578 25.405 10.048C25.405 10.5623 25.4581 10.6121 26.0077 10.6121C26.8031 10.6121 27.2639 10.762 27.2639 11.0206C27.2639 11.2792 26.8031 11.429 26.0077 11.429H25.405V13.2879C25.405 14.7408 25.4728 15.1911 25.7148 15.3501C26.3033 15.7363 26.0187 15.8402 24.3723 15.8402C23.4636 15.8402 22.7229 15.785 22.7266 15.7177C22.7301 15.6504 22.8696 15.4523 23.0364 15.278C23.2593 15.0449 23.3396 14.4961 23.3396 13.2057V11.4508L22.7716 11.399C22.3631 11.3619 22.2037 11.2555 22.2037 11.0206C22.2037 10.8409 22.3199 10.6847 22.4618 10.6734C22.6039 10.6621 22.8594 10.6438 23.0298 10.6326C23.2399 10.6187 23.3396 10.4319 23.3396 10.0529Z" fill="white"/>
<path d="M39.0883 8.45654C39.2304 8.31489 39.4859 8.15968 39.6563 8.11149C41.0228 7.72527 42.1133 8.83835 41.1734 9.65981C40.1787 10.5293 38.1715 9.37096 39.0883 8.45654Z" fill="white"/>
<path d="M14.8715 9.88429C14.8715 9.78136 14.9842 9.60802 15.1218 9.49921C15.5231 9.18177 15.7962 9.3672 15.8643 10.0032C15.9253 10.5711 15.9616 10.5963 16.7938 10.644C17.5012 10.6847 17.6598 10.7536 17.6598 11.0206C17.6598 11.2882 17.5009 11.3565 16.782 11.3975L15.9042 11.4478V12.9847C15.9042 14.3352 15.9525 14.5422 16.3024 14.6902C16.7636 14.8854 17.2688 14.773 17.4307 14.4389C17.6174 14.054 17.9696 14.1772 17.9696 14.6275C17.9696 15.2913 16.9317 16.0044 15.9717 16C14.3605 15.9925 13.8388 15.2814 13.8388 13.0925C13.8388 11.5819 13.8084 11.4609 13.4077 11.378C12.8071 11.2537 12.9736 10.7097 13.6343 10.6381C14.2075 10.576 14.8715 10.1713 14.8715 9.88429Z" fill="white"/>
<path d="M7.67685 11.2339C7.94205 11.1126 8.3448 10.9273 8.572 10.8222C9.23375 10.5164 9.70797 10.57 9.70797 10.9508V11.2893L10.2522 10.9508C11.3444 10.2712 12.8061 10.6871 12.8061 11.6778C12.8061 12.4601 11.522 12.7055 11.1162 12.0008C10.9869 11.7762 10.775 11.5924 10.6455 11.5924C10.0717 11.5924 9.91451 12.0221 9.91451 13.5907C9.91451 14.8678 9.97792 15.2163 10.2243 15.2909C10.3947 15.3427 10.5341 15.4875 10.5341 15.6126C10.5341 15.7869 10.1714 15.8402 8.98508 15.8402C7.77413 15.8402 7.43603 15.7889 7.43603 15.6048C7.43603 15.4752 7.52897 15.3239 7.64257 15.2684C7.75699 15.2123 7.84911 14.4677 7.84911 13.597C7.84911 12.3933 7.77269 11.9598 7.52195 11.7406C7.2206 11.4772 7.23279 11.4372 7.67685 11.2339Z" fill="white"/>
<path d="M18.7739 11.6842C18.7146 11.4534 18.916 11.2661 19.5186 10.9926C21.0406 10.3016 21.0677 10.3315 21.0677 12.7048C21.0677 14.2919 21.141 14.8741 21.3709 15.1146C21.9616 15.7324 21.7782 15.8402 20.1383 15.8402C18.5849 15.8402 18.2459 15.687 18.8106 15.2403C19.0145 15.079 18.988 12.5183 18.7739 11.6842Z" fill="white"/>
<path d="M28.0682 11.7025C28.0091 11.4864 28.2423 11.2946 28.9162 11.0054C30.4312 10.355 30.4589 10.3877 30.5099 12.8878C30.5353 14.1277 30.6472 15.1509 30.7681 15.2465C31.3247 15.6868 30.9798 15.8402 29.4326 15.8402C27.8792 15.8402 27.5403 15.687 28.1049 15.2403C28.3088 15.079 28.2819 12.4866 28.0682 11.7025Z" fill="white"/>
<path d="M32.0525 11.9231C32.321 11.6107 32.8541 11.1879 33.2375 10.9837C34.7047 10.2014 37.2702 10.6293 37.7586 11.7378C37.9515 12.1757 37.9243 12.2716 37.5471 12.4805C36.9944 12.7868 36.5056 12.5947 35.8826 11.8265C34.6917 10.3584 33.0295 11.5176 33.6617 13.3752C34.1617 14.8436 36.272 15.3314 37.3189 14.2206C37.5015 14.0269 37.6231 14.0083 37.8012 14.1468C37.9807 14.2866 37.9561 14.4592 37.7018 14.8483C36.7018 16.3782 33.6578 16.3723 32.2306 14.838C31.4821 14.0334 31.3997 12.6831 32.0525 11.9231Z" fill="white"/>
<path d="M38.94 11.9912C38.4949 11.5257 38.5309 11.4736 39.6047 11.0292C41.1882 10.3738 41.1971 10.3836 41.2634 12.8983C41.2952 14.1086 41.4113 15.1699 41.5216 15.2571C42.0644 15.6865 41.7089 15.8402 40.1727 15.8402C39.3207 15.8402 38.6265 15.785 38.6302 15.7177C38.6337 15.6504 38.7732 15.4523 38.94 15.278C39.3604 14.8384 39.3604 12.4308 38.94 11.9912Z" fill="white"/>
<path fill-rule="evenodd" clip-rule="evenodd" d="M0.865564 10.9433C0.286012 11.2228 0.191416 11.3535 0.245943 11.8004C0.299231 12.2361 0.40725 12.3364 0.867629 12.3784C1.33792 12.4214 1.49179 12.3258 1.85303 11.7657C2.42639 10.8768 3.18522 10.8353 3.62556 11.6689C4.17661 12.7122 4.0721 12.8627 2.8595 12.7705C0.499573 12.5911 -0.836121 14.1141 0.580745 15.3685C1.04753 15.7817 1.36415 15.8975 2.19899 15.9611C2.89048 16.0135 3.43782 15.958 3.83892 15.7946C4.35258 15.5853 4.48043 15.5827 4.70742 15.7765C5.02239 16.0449 6.05592 16.0746 6.6299 15.8317C7.03038 15.6621 7.03059 15.6543 6.64105 15.2625C6.38019 15.0003 6.19678 14.4618 6.10116 13.6781C5.92518 12.2358 5.49393 11.4795 4.56553 10.9856C3.63321 10.4894 1.8489 10.469 0.865564 10.9433ZM3.2193 15.5134C4.05227 15.5134 4.42838 14.288 3.80979 13.5894C3.13895 12.8316 1.90095 13.4312 2.14467 14.3955C2.2909 14.9735 2.80993 15.5134 3.2193 15.5134Z" fill="white"/>
<path fill-rule="evenodd" clip-rule="evenodd" d="M43.4441 10.9283C42.3186 11.471 42.3531 12.4093 43.4984 12.4093C43.8584 12.4093 44.0951 12.239 44.4067 11.7558C45.0695 10.7281 46.0582 10.9887 46.3474 12.2671L46.4815 12.86L45.5597 12.7779C44.3386 12.6691 43.6512 12.8223 43.0467 13.3382C42.0929 14.1523 42.5405 15.4342 43.9237 15.8502C44.6984 16.0831 45.9126 16.0338 46.428 15.7482C46.8458 15.5167 46.9189 15.5167 47.2116 15.7482C47.6973 16.1325 49.3637 16.0545 49.3637 15.6477C49.3637 15.561 49.234 15.3875 49.0756 15.2622C48.9168 15.1367 48.7222 14.4997 48.6423 13.8442C48.3591 11.5233 47.3991 10.6133 45.2329 10.6133C44.4747 10.6133 43.8799 10.718 43.4441 10.9283ZM45.4855 15.4434C46.5066 15.6997 47.1151 14.2249 46.2656 13.5529C45.7683 13.1595 45.373 13.1388 44.9378 13.4828C44.3355 13.9594 44.6947 15.2447 45.4855 15.4434Z" fill="white"/>
</svg>
