<svg width="15" height="18" viewBox="0 0 15 18" fill="none" xmlns="http://www.w3.org/2000/svg">
<path d="M0.504 17.816C0.397333 17.816 0.344 17.7733 0.344 17.688C0.344 17.688 0.365333 17.6453 0.408 17.56C0.92 16.8987 1.56 16.12 2.328 15.224C3.096 14.328 3.88533 13.3787 4.696 12.376C5.528 11.3733 6.296 10.392 7 9.432C6.91467 9.112 6.81867 8.78133 6.712 8.44C6.60533 8.09867 6.50933 7.75733 6.424 7.416C6.33867 7.18133 6.232 7.064 6.104 7.064C5.99733 7.064 5.85867 7.224 5.688 7.544C5.51733 7.864 5.336 8.22667 5.144 8.632C4.97333 9.03733 4.80267 9.4 4.632 9.72C4.46133 10.04 4.312 10.2 4.184 10.2C4.09867 10.2 4.056 10.1253 4.056 9.976C4.056 9.80533 4.19467 9.34667 4.472 8.6C4.77067 7.85333 5.15467 6.98933 5.624 6.008C5.624 6.008 5.66667 5.90133 5.752 5.688C5.85867 5.47467 5.976 5.22933 6.104 4.952C6.25333 4.67467 6.41333 4.44 6.584 4.248C6.75467 4.03467 6.92533 3.928 7.096 3.928C7.288 3.928 7.448 4.01333 7.576 4.184C7.72533 4.35467 7.81067 4.568 7.832 4.824C7.87467 5.35733 7.93867 5.88 8.024 6.392C8.13067 6.88267 8.22667 7.352 8.312 7.8C8.54667 7.48 8.84533 7.02133 9.208 6.424C9.592 5.80533 9.976 5.144 10.36 4.44C10.7653 3.71467 11.1067 3 11.384 2.296C11.6827 1.592 11.864 0.984 11.928 0.471999C11.928 0.407999 11.9813 0.375999 12.088 0.375999C12.3227 0.375999 12.4613 0.546666 12.504 0.888C12.568 1.22933 12.6 1.51733 12.6 1.752C12.6 2.2 12.4827 2.68 12.248 3.192C12.0133 3.68267 11.5973 4.33333 11 5.144C10.424 5.93333 9.58133 7.01067 8.472 8.376C8.81333 9.61333 9.19733 10.6053 9.624 11.352C10.072 12.0773 10.4667 12.44 10.808 12.44C11.1493 12.44 11.48 12.248 11.8 11.864C12.1413 11.4587 12.4507 11.0107 12.728 10.52C13.0267 10.008 13.2827 9.56 13.496 9.176C13.7307 8.77067 13.9013 8.568 14.008 8.568C14.1147 8.568 14.168 8.632 14.168 8.76C14.168 8.90933 14.0827 9.18667 13.912 9.592C13.7413 9.976 13.5067 10.4133 13.208 10.904C12.9093 11.3947 12.5787 11.8747 12.216 12.344C11.8533 12.8133 11.4693 13.208 11.064 13.528C10.6587 13.8267 10.2747 13.976 9.912 13.976C9.42133 13.976 8.952 13.6133 8.504 12.888C8.056 12.1627 7.64 11.256 7.256 10.168C6.33867 11.512 5.432 12.7707 4.536 13.944C3.64 15.096 2.84 16.024 2.136 16.728C1.432 17.4533 0.888 17.816 0.504 17.816Z" fill="white"/>
</svg>
